<svg width="152" height="30" viewBox="0 0 152 30" fill="none" xmlns="http://www.w3.org/2000/svg">
<path d="M34.4998 16.1863C34.4998 24.1035 21.7101 29.3225 17.3019 29.8215C9.12074 30.7477 0.455783 28.2381 0.0159389 18.2976C-0.423906 8.35707 8.30722 0 17.8297 0C27.3522 0 34.4998 7.53837 34.4998 16.1863Z" fill="url(#paint0_linear_25679_11789)"/>
<rect x="8.71094" y="11.6113" width="3.34283" height="7.82925" rx="1.67141" fill="white"/>
<rect x="13.7266" y="8.18066" width="3.51877" height="14.4269" rx="1.6867" fill="white"/>
<rect x="18.6484" y="11.6113" width="3.51877" height="7.56535" rx="1.6867" fill="white"/>
<rect x="23.75" y="13.1953" width="3.51877" height="4.39846" rx="1.6867" fill="white"/>
<path d="M51.9604 20.5L51.4753 18.6537H48.2746L47.776 20.5H44.8516L48.0657 10.6082H51.6168L54.8713 20.5H51.9604ZM50.9227 16.4705L50.4982 14.8533C50.3994 14.494 50.2781 14.029 50.1344 13.4585C49.9951 12.888 49.903 12.4792 49.8581 12.2322C49.8177 12.4613 49.7368 12.8386 49.6155 13.3642C49.4987 13.8898 49.2359 14.9252 48.8271 16.4705H50.9227ZM60.235 20.5L58.2203 13.4046H58.1596C58.2539 14.613 58.3011 15.5519 58.3011 16.2212V20.5H55.9427V10.6487H59.487L61.5422 17.643H61.5961L63.6109 10.6487H67.1619V20.5H64.7159V16.1808C64.7159 15.9562 64.7182 15.7069 64.7227 15.4328C64.7316 15.1588 64.7631 14.4872 64.817 13.4181H64.7564L62.7686 20.5H60.235ZM75.3287 20.5L74.8435 18.6537H71.6428L71.1442 20.5H68.2198L71.434 10.6082H74.985L78.2396 20.5H75.3287ZM74.291 16.4705L73.8665 14.8533C73.7676 14.494 73.6463 14.029 73.5026 13.4585C73.3633 12.888 73.2713 12.4792 73.2263 12.2322C73.1859 12.4613 73.105 12.8386 72.9838 13.3642C72.867 13.8898 72.6042 14.9252 72.1954 16.4705H74.291ZM82.8957 20.5V10.6487H85.5708V20.5H82.8957ZM92.3697 20.5V16.3358C92.3697 15.8281 92.2956 15.4463 92.1473 15.1903C92.0036 14.9297 91.77 14.7994 91.4466 14.7994C91.0018 14.7994 90.6806 14.9769 90.483 15.3318C90.2853 15.6866 90.1865 16.2953 90.1865 17.1578V20.5H87.5519V12.8656H89.5396L89.8698 13.8089H90.0248C90.2494 13.4495 90.5594 13.18 90.9547 13.0003C91.3545 12.8206 91.8127 12.7308 92.3293 12.7308C93.1738 12.7308 93.8297 12.9756 94.2968 13.4653C94.7685 13.9549 95.0044 14.6445 95.0044 15.5339V20.5H92.3697ZM100.536 18.5526C100.891 18.5526 101.316 18.465 101.81 18.2899V20.2103C101.455 20.363 101.116 20.4708 100.793 20.5337C100.474 20.6011 100.098 20.6348 99.6672 20.6348C98.7823 20.6348 98.1444 20.4191 97.7536 19.9879C97.3627 19.5522 97.1673 18.8851 97.1673 17.9866V14.8399H96.2442V13.7685L97.4166 12.9397L98.0972 11.336H99.8222V12.8656H101.695V14.8399H99.8222V17.8114C99.8222 18.3056 100.06 18.5526 100.536 18.5526ZM106.83 20.6348C105.559 20.6348 104.57 20.2979 103.865 19.624C103.164 18.9457 102.814 17.9821 102.814 16.7333C102.814 15.4441 103.14 14.4558 103.791 13.7685C104.442 13.0767 105.372 12.7308 106.581 12.7308C107.731 12.7308 108.618 13.0318 109.242 13.6337C109.871 14.2312 110.186 15.0937 110.186 16.2212V17.3937H105.476C105.494 17.8204 105.649 18.1551 105.941 18.3977C106.237 18.6402 106.639 18.7615 107.147 18.7615C107.609 18.7615 108.034 18.7189 108.42 18.6335C108.811 18.5437 109.233 18.3932 109.687 18.182V20.0755C109.274 20.2866 108.847 20.4326 108.407 20.5135C107.967 20.5943 107.441 20.6348 106.83 20.6348ZM106.675 14.5232C106.365 14.5232 106.104 14.622 105.893 14.8197C105.687 15.0128 105.565 15.3183 105.53 15.7361H107.794C107.785 15.3677 107.679 15.0735 107.477 14.8533C107.279 14.6332 107.012 14.5232 106.675 14.5232ZM116.284 12.7308C116.513 12.7308 116.731 12.7488 116.937 12.7847L117.086 12.8117L116.85 15.2981C116.634 15.2442 116.335 15.2172 115.954 15.2172C115.379 15.2172 114.961 15.3497 114.7 15.6148C114.44 15.8753 114.309 16.2527 114.309 16.7468V20.5H111.675V12.8656H113.636L114.047 14.0852H114.175C114.395 13.6809 114.7 13.3552 115.091 13.1081C115.486 12.8566 115.884 12.7308 116.284 12.7308ZM120.158 20.5L117.247 12.8656H119.997L121.29 17.3802C121.295 17.4027 121.304 17.4408 121.317 17.4947C121.331 17.5486 121.344 17.6138 121.358 17.6901C121.371 17.762 121.382 17.8406 121.391 17.926C121.405 18.0068 121.412 18.0832 121.412 18.1551H121.459C121.459 17.9215 121.499 17.6677 121.58 17.3937L122.934 12.8656H125.677L122.766 20.5H120.158ZM129.241 20.5H126.607V12.8656H129.241V20.5ZM126.539 10.9654C126.539 10.5701 126.649 10.2758 126.87 10.0827C127.09 9.8895 127.445 9.79292 127.934 9.79292C128.424 9.79292 128.781 9.89175 129.006 10.0894C129.23 10.2871 129.342 10.5791 129.342 10.9654C129.342 11.738 128.873 12.1244 127.934 12.1244C127.004 12.1244 126.539 11.738 126.539 10.9654ZM134.767 20.6348C133.495 20.6348 132.507 20.2979 131.802 19.624C131.101 18.9457 130.751 17.9821 130.751 16.7333C130.751 15.4441 131.076 14.4558 131.728 13.7685C132.379 13.0767 133.309 12.7308 134.517 12.7308C135.667 12.7308 136.555 13.0318 137.179 13.6337C137.808 14.2312 138.122 15.0937 138.122 16.2212V17.3937H133.412C133.43 17.8204 133.585 18.1551 133.877 18.3977C134.174 18.6402 134.576 18.7615 135.083 18.7615C135.546 18.7615 135.971 18.7189 136.357 18.6335C136.748 18.5437 137.17 18.3932 137.624 18.182V20.0755C137.211 20.2866 136.784 20.4326 136.344 20.5135C135.903 20.5943 135.378 20.6348 134.767 20.6348ZM134.612 14.5232C134.302 14.5232 134.041 14.622 133.83 14.8197C133.624 15.0128 133.502 15.3183 133.466 15.7361H135.73C135.721 15.3677 135.616 15.0735 135.414 14.8533C135.216 14.6332 134.949 14.5232 134.612 14.5232ZM146.181 20.5L145.319 16.8613L145.117 15.763L144.982 14.8803H144.942C144.721 16.1381 144.573 16.931 144.497 17.2589L143.722 20.5H140.952L138.87 12.8656H141.465L142.085 15.7967C142.282 16.8029 142.397 17.6385 142.428 18.3033H142.469C142.482 17.8901 142.606 17.1039 142.839 15.9449L143.547 12.8656H146.458L147.105 15.9854C147.311 16.9781 147.441 17.7508 147.495 18.3033H147.536C147.563 17.9619 147.608 17.5374 147.671 17.0298C147.733 16.5177 147.803 16.1067 147.879 15.7967L148.553 12.8656H151.094L148.998 20.5H146.181Z" fill="#141414"/>
<defs>
<linearGradient id="paint0_linear_25679_11789" x1="20.5531" y1="-3.06122" x2="16.9638" y2="33.8242" gradientUnits="userSpaceOnUse">
<stop stop-color="#2424FF"/>
<stop offset="1" stop-color="#A556F6"/>
</linearGradient>
</defs>
</svg>
